<?xml version="1.0" standalone="no"?>
<!DOCTYPE svg PUBLIC "-//W3C//DTD SVG 20010904//EN"
 "http://www.w3.org/TR/2001/REC-SVG-20010904/DTD/svg10.dtd">
<svg version="1.0" xmlns="http://www.w3.org/2000/svg"
 width="48.000000pt" height="48.000000pt" viewBox="0 0 48.000000 48.000000"
 preserveAspectRatio="xMidYMid meet">

<g transform="translate(0.000000,48.000000) scale(0.100000,-0.100000)"
fill="#000000" stroke="none">
<path d="M0 245 l0 -85 65 0 c51 0 65 -3 65 -15 0 -12 13 -15 55 -15 42 0 55
3 55 15 0 13 20 15 120 15 l120 0 0 85 0 85 -240 0 -240 0 0 -85z m130 0 c0
-30 -4 -55 -10 -55 -5 0 -10 18 -10 40 0 29 -4 40 -15 40 -11 0 -15 -11 -15
-40 0 -36 -2 -40 -25 -40 -24 0 -25 3 -25 55 l0 55 50 0 50 0 0 -55z m130 0
c0 -52 -1 -55 -25 -55 -16 0 -25 -6 -25 -15 0 -9 -9 -15 -25 -15 -24 0 -25 2
-25 70 l0 70 50 0 50 0 0 -55z m190 0 c0 -30 -4 -55 -10 -55 -5 0 -10 18 -10
40 0 29 -4 40 -15 40 -11 0 -15 -11 -15 -40 0 -29 -4 -40 -15 -40 -11 0 -15
11 -15 40 0 29 -4 40 -15 40 -11 0 -15 -11 -15 -40 0 -36 -2 -40 -25 -40 -24
0 -25 3 -25 55 l0 55 80 0 80 0 0 -55z"/>
<path d="M210 245 c0 -16 6 -25 15 -25 9 0 15 9 15 25 0 16 -6 25 -15 25 -9 0
-15 -9 -15 -25z"/>
</g>
</svg>
