<?xml version="1.0" standalone="no"?>
<!DOCTYPE svg PUBLIC "-//W3C//DTD SVG 20010904//EN"
 "http://www.w3.org/TR/2001/REC-SVG-20010904/DTD/svg10.dtd">
<svg version="1.0" xmlns="http://www.w3.org/2000/svg"
 width="64.000000pt" height="64.000000pt" viewBox="0 0 64.000000 64.000000"
 preserveAspectRatio="xMidYMid meet">

<g transform="translate(0.000000,64.000000) scale(0.100000,-0.100000)"
fill="#000000" stroke="none">
<path d="M307 303 c-4 -3 -7 -30 -7 -60 0 -40 -4 -53 -15 -53 -8 0 -15 -5 -15
-11 0 -6 12 -9 28 -7 26 3 27 5 30 71 3 61 -3 78 -21 60z"/>
<path d="M376 294 c-9 -8 -16 -22 -16 -29 0 -18 39 -45 63 -45 11 0 17 -5 14
-12 -2 -8 -20 -13 -41 -12 -23 1 -35 -3 -33 -10 6 -19 88 -13 101 7 9 15 7 22
-13 38 -13 10 -32 19 -42 19 -10 0 -19 7 -19 15 0 10 11 15 35 15 36 0 47 13
19 24 -27 10 -52 7 -68 -10z"/>
</g>
</svg>
